<svg width="16" height="16" viewBox="0 0 16 16" fill="none" xmlns="http://www.w3.org/2000/svg">
<rect x="0.5" y="0.5" width="15" height="15" rx="3.5" fill="#EAEAEA" stroke="#29292E"/>
<path d="M6.75 10.9395L9.43945 3.46875H10.2246L7.04883 12H6.46875L6.75 10.9395ZM3.97266 3.46875L6.65039 10.9395L6.94336 12H6.35742L3.1875 3.46875H3.97266Z" fill="#29292E"/>
<path d="M10.0195 7.89844H7.61719L7.60547 7.28906H9.67383C10.0957 7.28906 10.4551 7.22852 10.752 7.10742C11.0488 6.98633 11.2734 6.80664 11.4258 6.56836C11.582 6.32617 11.6602 6.0293 11.6602 5.67773C11.6602 5.31836 11.584 5.02148 11.4316 4.78711C11.2793 4.54883 11.0508 4.37305 10.7461 4.25977C10.4414 4.14648 10.0586 4.08984 9.59766 4.08984H7.80469V12H7.08398V3.46875H9.59766C10.0312 3.46875 10.4199 3.51172 10.7637 3.59766C11.1074 3.68359 11.4004 3.81836 11.6426 4.00195C11.8848 4.18555 12.0684 4.41797 12.1934 4.69922C12.3223 4.97656 12.3867 5.30859 12.3867 5.69531C12.3867 6.04688 12.3086 6.36523 12.1523 6.65039C11.9961 6.93164 11.7754 7.16211 11.4902 7.3418C11.209 7.51758 10.8711 7.62695 10.4766 7.66992L10.0195 7.89844ZM9.9668 12H7.38867L7.75781 11.3848H9.9668C10.3887 11.3848 10.748 11.3145 11.0449 11.1738C11.3457 11.0293 11.5762 10.8242 11.7363 10.5586C11.8965 10.293 11.9766 9.97656 11.9766 9.60938C11.9766 9.28516 11.9062 8.99414 11.7656 8.73633C11.625 8.47852 11.4102 8.27539 11.1211 8.12695C10.832 7.97461 10.4648 7.89844 10.0195 7.89844H8.52539L8.53711 7.28906H10.6523L10.7812 7.50586C11.1641 7.54492 11.498 7.66406 11.7832 7.86328C12.0723 8.05859 12.2949 8.30664 12.4512 8.60742C12.6113 8.9082 12.6914 9.23828 12.6914 9.59766C12.6914 10.1133 12.5762 10.5508 12.3457 10.9102C12.1191 11.2656 11.8008 11.5371 11.3906 11.7246C10.9844 11.9082 10.5098 12 9.9668 12Z" fill="#29292E"/>
</svg>
