<svg width="116" height="116" viewBox="0 0 116 116" fill="none" xmlns="http://www.w3.org/2000/svg">
<g clip-path="url(#clip0_17_72)">
<path d="M0 101.043C0 109.304 6.69652 116 14.9571 116H101.043C109.304 116 116 109.303 116 101.043V14.9571C116 6.69561 109.303 0 101.043 0H14.9571C6.69561 0 0 6.69652 0 14.9571V101.043Z" fill="#563D7C"/>
<path d="M48.1026 51.311V34.8836H62.5626C63.9398 34.8836 65.2677 34.9984 66.5465 35.2279C67.8253 35.4575 68.9565 35.8673 69.9402 36.4575C70.9239 37.0477 71.7108 37.8675 72.301 38.9167C72.8912 39.966 73.1863 41.3103 73.1863 42.9498C73.1863 45.9008 72.301 48.0321 70.5304 49.3437C68.7598 50.6552 66.4974 51.311 63.7431 51.311H48.1026ZM32.6589 22.8828V93.1172H66.6941C69.8419 93.1172 72.9076 92.7237 75.8914 91.9368C78.8753 91.1498 81.5312 89.9366 83.8592 88.2972C86.1873 86.6577 88.0398 84.5428 89.417 81.9525C90.7941 79.3621 91.4827 76.2964 91.4827 72.7551C91.4827 68.3613 90.417 64.607 88.2857 61.492C86.1544 58.3771 82.9247 56.1966 78.5965 54.9506C81.7443 53.4423 84.1215 51.5078 85.7282 49.1469C87.3349 46.7861 88.1382 43.8351 88.1382 40.2939C88.1382 37.0149 87.5972 34.2607 86.5151 32.031C85.4331 29.8013 83.9084 28.0143 81.941 26.67C79.9737 25.3256 77.6129 24.3583 74.8586 23.7681C72.1043 23.1779 69.0549 22.8828 65.7104 22.8828H32.6589ZM48.1026 81.1164V61.8363H64.9235C68.268 61.8363 70.9567 62.6069 72.9896 64.148C75.0225 65.6891 76.039 68.263 76.039 71.8698C76.039 73.706 75.7275 75.2143 75.1045 76.3947C74.4815 77.5751 73.6454 78.5096 72.5961 79.1982C71.5469 79.8868 70.3337 80.3786 68.9565 80.6737C67.5794 80.9688 66.1367 81.1164 64.6284 81.1164H48.1026Z" fill="white"/>
</g>
<defs>
<clipPath id="clip0_17_72">
<rect width="116" height="116" fill="white"/>
</clipPath>
</defs>
</svg>
