<svg width="82" height="116" viewBox="0 0 82 116" fill="none" xmlns="http://www.w3.org/2000/svg">
<path d="M40.9498 115.707L7.47298 106.414L0.0128174 22.7391H81.9871L74.519 106.4L40.9498 115.707Z" fill="#264DE4"/>
<path d="M68.1256 101.073L74.5075 29.5807H41V108.593L68.1256 101.073Z" fill="#2965F1"/>
<path d="M17.1151 60.6144L18.0349 70.8766H41V60.6144H17.1151Z" fill="#EBEBEB"/>
<path d="M15.267 39.8432L16.1999 50.1056H41V39.8432H15.267Z" fill="#EBEBEB"/>
<path d="M41 87.2667L40.955 87.2787L29.5258 84.1926L28.7952 76.0079H18.4934L19.9312 92.1212L40.9528 97.957L41 97.9439V87.2667Z" fill="#EBEBEB"/>
<path d="M19.3049 0H31.7344V5.19777H24.5027V10.3955H31.7344V15.5933H19.3049V0Z" fill="black"/>
<path d="M34.2202 0H46.6497V4.5198H39.418V5.42376H46.6497V15.8193H34.2202V11.0735H41.4519V10.1696H34.2202V0Z" fill="black"/>
<path d="M49.1356 0H61.5651V4.5198H54.3334V5.42376H61.5651V15.8193H49.1356V11.0735H56.3673V10.1696H49.1356V0Z" fill="black"/>
<path d="M64.8191 60.6144L66.6718 39.8432H40.9645V50.1056H55.4251L54.4913 60.6144H40.9645V70.8766H53.6014L52.4102 84.1861L40.9645 87.2753V97.952L62.0028 92.1213L62.1571 90.3875L64.5687 63.3701L64.8191 60.6144Z" fill="white"/>
</svg>
