<svg width="116" height="116" viewBox="0 0 116 116" fill="none" xmlns="http://www.w3.org/2000/svg">
<g clip-path="url(#clip0_17_49)">
<path d="M113.812 52.8314L63.1651 2.18789C60.2505 -0.729298 55.5196 -0.729298 52.6011 2.18789L42.0842 12.7048L55.4254 26.046C58.5259 24.9985 62.0807 25.7011 64.5524 28.1728C67.0356 30.6598 67.7331 34.2452 66.6601 37.3558L79.5177 50.2133C82.6283 49.1417 86.2175 49.8353 88.702 52.3236C92.1741 55.7944 92.1741 61.4201 88.702 64.8935C85.2286 68.3669 79.6029 68.3669 76.1283 64.8935C73.5166 62.2792 72.8713 58.4431 74.1937 55.2255L62.2029 43.2347L62.2016 74.7893C63.048 75.2093 63.8473 75.768 64.5524 76.4706C68.0245 79.9415 68.0245 85.5671 64.5524 89.043C61.079 92.5152 55.4508 92.5152 51.9825 89.043C48.5104 85.5671 48.5104 79.9415 51.9825 76.4706C52.8404 75.614 53.8332 74.9662 54.8921 74.5309V42.6824C53.8332 42.2496 52.8417 41.6056 51.9825 40.7427C49.3517 38.1157 48.7192 34.2553 50.067 31.0251L36.9168 17.8722L2.18921 52.5972C-0.72925 55.517 -0.72925 60.2479 2.18921 63.1651L52.8366 113.81C55.7525 116.727 60.4821 116.727 63.4018 113.81L113.812 63.4005C116.73 60.4821 116.73 55.7486 113.812 52.8314Z" fill="#DE4C36"/>
</g>
<defs>
<clipPath id="clip0_17_49">
<rect width="116" height="116" fill="white"/>
</clipPath>
</defs>
</svg>
