<svg width="116" height="116" viewBox="0 0 116 116" fill="none" xmlns="http://www.w3.org/2000/svg">
<g clip-path="url(#clip0_17_10)">
<path d="M116 0H0V116H116V0Z" fill="#F7DF1E"/>
<path d="M77.9225 90.6255C80.2591 94.4406 83.299 97.2448 88.6755 97.2448C93.1922 97.2448 96.0774 94.9874 96.0774 91.8683C96.0774 88.1305 93.113 86.8067 88.1416 84.6321L85.4165 83.4629C77.5506 80.1118 72.3251 75.9137 72.3251 67.0388C72.3251 58.8636 78.5541 52.6401 88.2889 52.6401C95.2194 52.6401 100.202 55.0521 103.792 61.3677L95.3041 66.8178C93.4352 63.4667 91.419 62.1465 88.2889 62.1465C85.0961 62.1465 83.0726 64.1719 83.0726 66.8178C83.0726 70.0879 85.098 71.4118 89.7748 73.4372L92.4999 74.6046C101.761 78.5762 106.991 82.6251 106.991 91.7284C106.991 101.542 99.2813 106.919 88.9278 106.919C78.8045 106.919 72.2643 102.095 69.0642 95.7718L77.9225 90.6255ZM39.416 91.57C41.1284 94.6081 42.6861 97.1767 46.4313 97.1767C50.0126 97.1767 52.2718 95.7755 52.2718 90.3272V53.2624H63.1721V90.4745C63.1721 101.761 56.5546 106.899 46.8953 106.899C38.1677 106.899 33.1134 102.382 30.543 96.9419L39.416 91.57Z" fill="black"/>
</g>
<defs>
<clipPath id="clip0_17_10">
<rect width="116" height="116" rx="8" fill="white"/>
</clipPath>
</defs>
</svg>
