<svg width="116" height="116" viewBox="0 0 116 116" fill="none" xmlns="http://www.w3.org/2000/svg">
<path d="M58 108.75C56.6307 108.751 55.2854 108.39 54.0995 107.706L41.6875 100.358C39.8351 99.3214 40.7378 98.9552 41.3504 98.7414C43.3205 98.1327 45.2068 97.2803 46.9655 96.2039C47.1127 96.1358 47.2749 96.1063 47.4366 96.1184C47.5984 96.1305 47.7544 96.1836 47.8899 96.2727L57.4272 101.939C57.6048 102.033 57.8027 102.082 58.0036 102.082C58.2045 102.082 58.4024 102.033 58.58 101.939L95.7725 80.4714C95.9465 80.3671 96.0905 80.2194 96.1903 80.0427C96.29 79.8661 96.3422 79.6665 96.3416 79.4636V36.5219C96.3417 36.3158 96.2888 36.1131 96.1878 35.9334C96.0869 35.7537 95.9413 35.6031 95.7652 35.496L58.5728 14.0469C58.3974 13.9481 58.1995 13.8962 57.9982 13.8962C57.7969 13.8962 57.599 13.9481 57.4236 14.0469L20.2529 35.5032C20.0756 35.6081 19.9284 35.757 19.8255 35.9354C19.7226 36.1139 19.6675 36.3159 19.6656 36.5219V79.4455C19.6661 79.6479 19.7205 79.8466 19.823 80.0211C19.9256 80.1956 20.0727 80.3398 20.2493 80.4387L30.45 86.3257C35.9781 89.088 39.3639 85.8327 39.3639 82.563V40.1831C39.3639 39.8947 39.4785 39.6181 39.6824 39.4141C39.8863 39.2102 40.163 39.0956 40.4514 39.0956H45.1639C45.4523 39.0956 45.7289 39.2102 45.9329 39.4141C46.1368 39.6181 46.2514 39.8947 46.2514 40.1831V82.5666C46.2514 89.9435 42.2349 94.1666 35.2386 94.1666C32.2204 94.2192 29.2494 93.412 26.6728 91.8394L16.8961 86.2315C15.7093 85.5403 14.7245 84.5499 14.04 83.3592C13.3556 82.1684 12.9955 80.8189 12.9956 79.4455V36.5219C12.9921 35.1463 13.3507 33.794 14.0354 32.6009C14.72 31.4078 15.7067 30.416 16.8961 29.725L54.0923 8.25049C55.2904 7.59498 56.6342 7.2514 58 7.2514C59.3658 7.2514 60.7096 7.59498 61.9077 8.25049L99.1003 29.725C100.287 30.4148 101.272 31.4038 101.957 32.5933C102.642 33.7827 103.003 35.1311 103.004 36.5037V79.4455C103.002 80.8189 102.641 82.1679 101.956 83.3584C101.271 84.5489 100.287 85.5394 99.1003 86.2315L61.9077 107.706C60.7196 108.392 59.3717 108.752 58 108.75Z" fill="#83CD29"/>
<path d="M50.9458 65.0796C50.9458 64.7912 51.0604 64.5146 51.2643 64.3106C51.4683 64.1067 51.7449 63.9921 52.0333 63.9921H56.8437C57.1007 63.993 57.3491 64.0848 57.5449 64.2514C57.7406 64.4179 57.8711 64.6484 57.9131 64.902C58.6381 69.7994 60.8131 72.268 70.6477 72.268C78.4813 72.268 81.8199 70.4954 81.8199 66.3375C81.8199 63.9414 80.8738 62.1615 68.6974 60.9689C58.5184 59.9611 52.2254 57.7064 52.2254 49.5719C52.2254 42.0681 58.5511 37.5912 69.1542 37.5912C81.0696 37.5912 86.9674 41.7274 87.7142 50.6014C87.7256 50.7495 87.7065 50.8984 87.6581 51.0389C87.6097 51.1794 87.5331 51.3085 87.4329 51.4182C87.3327 51.528 87.2111 51.616 87.0755 51.6769C86.94 51.7377 86.7934 51.7702 86.6448 51.7722H81.8018C81.5588 51.7688 81.324 51.6842 81.1348 51.5317C80.9456 51.3793 80.8129 51.1679 80.7578 50.9312C79.6014 45.7801 76.7703 44.1344 69.1578 44.1344C60.6028 44.1344 59.6096 47.1141 59.6096 49.3471C59.6096 52.0514 60.7841 52.8416 72.3333 54.3677C83.7629 55.8794 89.1932 58.0181 89.1932 66.0511C89.1932 74.1566 82.4362 78.7966 70.6513 78.7966C54.3569 78.8184 50.9458 71.3472 50.9458 65.0796Z" fill="#83CD29"/>
</svg>
