<svg width="116" height="116" viewBox="0 0 116 116" fill="none" xmlns="http://www.w3.org/2000/svg">
<path d="M95.3753 39.7951C94.1719 39.3809 92.925 38.989 91.6411 38.6184C91.8521 37.7571 92.0458 36.9071 92.218 36.0715C95.0447 22.3503 93.1965 11.2965 86.8855 7.65713C80.834 4.16744 70.9373 7.806 60.9421 16.5045C59.981 17.341 59.0171 18.2266 58.0537 19.1547C57.4117 18.5406 56.7708 17.9472 56.1316 17.3796C45.6563 8.07855 35.1565 4.15897 28.8516 7.80889C22.806 11.3087 21.0156 21.7003 23.56 34.7039C23.8057 35.96 24.0929 37.2426 24.4177 38.5467C22.9317 38.9686 21.4971 39.4183 20.1244 39.8967C7.84329 44.1784 0 50.889 0 57.8496C0 65.0385 8.41978 72.2492 21.2115 76.6213C22.221 76.9664 23.2685 77.2926 24.3479 77.6023C23.9975 79.0128 23.6928 80.3949 23.437 81.743C21.0108 94.521 22.9055 104.667 28.9351 108.145C35.1631 111.736 45.6154 108.045 55.7934 99.1479C56.5978 98.4447 57.4051 97.6989 58.2139 96.9171C59.2622 97.9266 60.3088 98.882 61.3499 99.7781C71.2084 108.262 80.9453 111.687 86.9693 108.2C93.1911 104.598 95.2132 93.6988 92.588 80.4379C92.3875 79.4251 92.1542 78.3904 91.8922 77.3374C92.6262 77.1204 93.3468 76.8964 94.0495 76.6635C107.348 72.2574 116 65.1345 116 57.8496C116 50.8638 107.904 44.108 95.3753 39.7951ZM92.491 71.9597C91.8567 72.1697 91.2059 72.3726 90.5427 72.5694C89.0746 67.9218 87.0932 62.9797 84.6685 57.8737C86.9824 52.8893 88.8871 48.0104 90.3141 43.393C91.5007 43.7363 92.6525 44.0985 93.7623 44.4807C104.497 48.176 111.045 53.6397 111.045 57.8496C111.045 62.3339 103.973 68.1551 92.491 71.9597ZM87.7267 81.4003C88.8875 87.2641 89.0533 92.5656 88.2844 96.71C87.5935 100.434 86.2041 102.917 84.4862 103.911C80.8305 106.027 73.0128 103.277 64.5817 96.0216C63.6152 95.1899 62.6416 94.3019 61.665 93.362C64.9335 89.7872 68.2002 85.6314 71.3885 81.016C76.9962 80.5184 82.2943 79.7049 87.0988 78.5942C87.3354 79.5488 87.5456 80.485 87.7267 81.4003ZM39.547 103.546C35.9754 104.807 33.1307 104.843 31.4111 103.852C27.7521 101.741 26.231 93.5949 28.3059 82.6672C28.5436 81.4158 28.8265 80.1302 29.1525 78.8162C33.9044 79.867 39.1636 80.6231 44.7848 81.0788C47.9945 85.5951 51.3555 89.7464 54.7426 93.3812C54.0026 94.0956 53.2654 94.7757 52.5325 95.4167C48.0318 99.3507 43.5217 102.142 39.547 103.546ZM22.8142 71.9322C17.1579 69.999 12.4868 67.4863 9.28492 64.7445C6.40785 62.2806 4.95528 59.8344 4.95528 57.8496C4.95528 53.6256 11.2527 48.238 21.7556 44.5761C23.03 44.1318 24.364 43.713 25.7485 43.3197C27.2 48.0414 29.1042 52.9781 31.4021 57.9701C29.0744 63.0363 27.1432 68.0517 25.6775 72.8287C24.6905 72.545 23.7343 72.2465 22.8142 71.9322ZM28.4232 33.7523C26.2432 22.6111 27.691 14.2066 31.3343 12.0977C35.2151 9.85096 43.7966 13.0543 52.8411 21.0852C53.4193 21.5986 53.9997 22.1358 54.5817 22.6917C51.2114 26.3106 47.8811 30.4307 44.6999 34.9203C39.2443 35.426 34.0221 36.2383 29.2206 37.326C28.9188 36.1117 28.6514 34.9187 28.4232 33.7523ZM78.4604 46.1077C77.3125 44.1251 76.1342 42.1894 74.9329 40.3065C78.634 40.7744 82.1801 41.3955 85.5102 42.1555C84.5104 45.3597 83.2643 48.7098 81.7975 52.1441C80.7452 50.1465 79.6323 48.1323 78.4604 46.1077ZM58.0553 26.2332C60.341 28.7095 62.6301 31.4742 64.8815 34.4739C62.6127 34.3668 60.3159 34.311 58 34.311C55.706 34.311 53.4261 34.3655 51.1713 34.4708C53.4251 31.499 55.7339 28.738 58.0553 26.2332ZM37.5196 46.142C36.373 48.1302 35.2808 50.1335 34.2451 52.1404C32.802 48.7181 31.5675 45.3527 30.559 42.1031C33.8687 41.3625 37.398 40.7569 41.0756 40.2979C39.8574 42.1981 38.6693 44.1481 37.5196 46.1416V46.142ZM41.1815 75.7547C37.3819 75.3308 33.7995 74.7564 30.4907 74.0362C31.5152 70.7287 32.777 67.2914 34.2506 63.7953C35.289 65.8008 36.3856 67.8049 37.5392 69.7974H37.5394C38.7145 71.8273 39.9319 73.8157 41.1815 75.7547ZM58.1924 89.8153C55.8438 87.2812 53.501 84.4781 51.2131 81.4628C53.4341 81.55 55.6986 81.5946 58 81.5946C60.3644 81.5946 62.7017 81.5413 65.0023 81.4389C62.7434 84.5084 60.4627 87.3159 58.1924 89.8153ZM81.8447 63.6171C83.3952 67.151 84.7022 70.5703 85.74 73.8215C82.3766 74.5888 78.7453 75.2068 74.9193 75.666C76.1234 73.7577 77.3121 71.7887 78.4802 69.7634C79.6619 67.7143 80.7839 65.6621 81.8447 63.6171ZM74.1877 67.2877C72.3744 70.4317 70.5128 73.4331 68.6229 76.2662C65.1807 76.5123 61.6245 76.6391 58 76.6391C54.3901 76.6391 50.8788 76.527 47.4975 76.3075C45.5314 73.4372 43.6293 70.427 41.8276 67.3147H41.828C40.031 64.211 38.3771 61.0809 36.8785 57.9685C38.3767 54.8488 40.0263 51.7153 41.8129 48.6171L41.8125 48.6177C43.6039 45.5112 45.4893 42.5156 47.4372 39.6634C50.887 39.4026 54.4246 39.2665 57.9998 39.2665H58C61.5913 39.2665 65.1334 39.4036 68.5822 39.6667C70.5004 42.4981 72.373 45.484 74.1714 48.5909C75.9903 51.7326 77.6611 54.8453 79.1721 57.8981C77.6656 61.0033 75.9985 64.1474 74.1877 67.2877ZM84.4102 11.9502C88.2947 14.1903 89.8053 23.2246 87.3647 35.0713C87.2091 35.8272 87.0338 36.5971 86.8434 37.3774C82.0308 36.267 76.8048 35.4407 71.3333 34.9274C68.1459 30.3883 64.8429 26.2619 61.5275 22.6894C62.4188 21.8319 63.309 21.0142 64.1954 20.2426C72.7593 12.7898 80.7634 9.84725 84.4102 11.9502ZM58 47.4912C63.7207 47.4912 68.3584 52.1287 68.3584 57.8496C68.3584 63.5703 63.7207 68.208 58 68.208C52.2793 68.208 47.6416 63.5703 47.6416 57.8496C47.6416 52.1287 52.2793 47.4912 58 47.4912Z" fill="#00D8FF"/>
</svg>
