<svg width="116" height="116" viewBox="0 0 116 116" fill="none" xmlns="http://www.w3.org/2000/svg">
<path d="M99.815 64.5765C95.7793 64.5976 92.2718 65.5696 89.3348 67.0064C88.2572 64.8723 87.1797 62.9707 86.9895 61.5761C86.7782 59.9492 86.5246 58.9561 86.7782 57.0122C87.0318 55.0683 88.1727 52.3004 88.1516 52.0891C88.1305 51.8778 87.8981 50.8847 85.5738 50.8636C83.2496 50.8424 81.2423 51.3073 81.0099 51.92C80.7775 52.5328 80.3338 53.9273 80.0379 55.3641C79.6365 57.477 75.3895 65.0202 72.9596 68.9714C72.1778 67.429 71.5017 66.0767 71.3538 64.9991C71.1425 63.3721 70.889 62.3791 71.1425 60.4352C71.3961 58.4913 72.537 55.7233 72.5159 55.512C72.4948 55.3007 72.2624 54.3076 69.9381 54.2865C67.6139 54.2654 65.6066 54.7302 65.3742 55.343C65.1418 55.9557 64.8882 57.3925 64.4022 58.7871C63.9163 60.1816 58.2747 72.7747 56.7957 76.0286C56.035 77.6978 55.38 79.029 54.9152 79.9375C54.9152 79.9375 54.894 80.0009 54.8307 80.1066C54.4292 80.8883 54.1968 81.3109 54.1968 81.3109C54.1968 81.3109 54.1968 81.3109 54.1968 81.3321C53.8798 81.9025 53.5418 82.4308 53.3727 82.4308C53.246 82.4308 53.0135 80.9095 53.415 78.8388C54.2602 74.465 56.2675 67.6614 56.2463 67.429C56.2463 67.3022 56.6267 66.1189 54.9363 65.5062C53.2882 64.8934 52.6966 65.9076 52.5487 65.9076C52.4008 65.9076 52.2951 66.2668 52.2951 66.2668C52.2951 66.2668 54.1334 58.618 48.7877 58.618C45.4492 58.618 40.843 62.2734 38.5611 65.5696C37.1243 66.3514 34.0605 68.0206 30.7855 69.8166C29.5389 70.5138 28.25 71.2111 27.0456 71.8661C26.9611 71.7816 26.8766 71.676 26.792 71.5914C20.3265 64.6822 8.36727 59.8013 8.87437 50.5255C9.06454 47.1448 10.2267 38.2705 31.8419 27.4945C49.6328 18.7259 63.7895 21.1557 66.2405 26.5437C69.748 34.2348 58.6551 48.5182 40.2725 50.5889C33.2576 51.3707 29.5811 48.6661 28.6514 47.6519C27.6795 46.5954 27.5316 46.5321 27.1724 46.7433C26.5807 47.0603 26.9611 48.0111 27.1724 48.5605C27.7217 49.9973 29.9826 52.5328 33.807 53.7794C37.1877 54.8781 45.407 55.4909 55.3589 51.6454C66.494 47.335 75.1993 35.3546 72.6427 25.3182C70.086 15.1339 53.1826 11.7743 37.1877 17.4581C27.6795 20.8388 17.3684 26.1634 9.95197 33.0938C1.14104 41.3342 -0.253495 48.4971 0.316997 51.4974C2.36654 62.1466 17.0514 69.077 22.9254 74.2115C22.6296 74.3805 22.3549 74.5284 22.1225 74.6552C19.1855 76.1131 7.98694 81.9659 5.19787 88.1568C2.02847 95.1718 5.70497 100.201 8.13485 100.877C15.678 102.968 23.4325 99.2075 27.595 92.9954C31.7574 86.7834 31.2503 78.712 29.3276 75.0144C29.3064 74.9721 29.2853 74.9299 29.243 74.8876C30.0037 74.4439 30.7855 73.979 31.5461 73.5353C33.0463 72.6479 34.5254 71.8239 35.7931 71.1477C35.0747 73.1127 34.5465 75.4581 34.293 78.8388C33.976 82.8111 35.603 87.9667 37.737 89.9951C38.6879 90.8825 39.8077 90.9036 40.5261 90.9036C43.0194 90.9036 44.1392 88.833 45.3858 86.382C46.9072 83.3816 48.2806 79.8953 48.2806 79.8953C48.2806 79.8953 46.5691 89.3189 51.2175 89.3189C52.9079 89.3189 54.6194 87.1215 55.38 86.0016V86.0228C55.38 86.0228 55.4223 85.9594 55.5068 85.8115C55.6758 85.5368 55.7815 85.3678 55.7815 85.3678V85.3255C56.4576 84.1423 57.9789 81.4588 60.2398 77.0005C63.1556 71.2534 65.9658 64.0694 65.9658 64.0694C65.9658 64.0694 66.2194 65.8231 67.0857 68.739C67.5928 70.4505 68.6492 72.331 69.4944 74.1481C68.8183 75.0989 68.3957 75.6271 68.3957 75.6271C68.3957 75.6271 68.3957 75.6271 68.4168 75.6483C67.8675 76.3667 67.2758 77.1484 66.6208 77.9091C64.3177 80.6559 61.5709 83.8042 61.1906 84.7127C60.7469 85.7903 60.8525 86.5721 61.6977 87.206C62.3104 87.6709 63.4092 87.7342 64.529 87.6709C66.5997 87.5229 68.0576 87.0158 68.776 86.6989C69.8959 86.2974 71.2059 85.6847 72.4314 84.7761C74.6922 83.1069 76.0656 80.7193 75.9389 77.571C75.8755 75.8384 75.305 74.1058 74.6077 72.4789C74.819 72.1831 75.0092 71.8872 75.2205 71.5914C78.7913 66.3725 81.5593 60.6464 81.5593 60.6464C81.5593 60.6464 81.8128 62.4002 82.6791 65.316C83.1017 66.7951 83.968 68.4009 84.7287 69.9645C81.3691 72.6902 79.2984 75.8596 78.5589 77.9302C77.2277 81.7758 78.2631 83.5084 80.2281 83.9098C81.1155 84.1 82.3833 83.6774 83.313 83.2759C84.4962 82.8956 85.8908 82.2406 87.2219 81.2687C89.4828 79.5994 91.6591 77.2752 91.5323 74.127C91.4689 72.6902 91.0886 71.2745 90.5603 69.9011C93.4128 68.7178 97.0893 68.0628 101.78 68.6122C111.838 69.7954 113.824 76.0709 113.443 78.712C113.063 81.3532 110.95 82.79 110.253 83.2337C109.556 83.6774 109.323 83.8253 109.387 84.1423C109.471 84.6071 109.809 84.586 110.401 84.5015C111.225 84.3535 115.683 82.3674 115.873 77.5076C116.19 71.2956 110.274 64.5131 99.815 64.5765ZM22.2281 90.7346C18.8897 94.3689 14.2412 95.7422 12.2339 94.5801C10.0787 93.3335 10.9239 87.9667 15.023 84.1211C17.5163 81.7758 20.7279 79.5994 22.862 78.2683C23.348 77.9725 24.0664 77.5499 24.9327 77.0217C25.0806 76.9372 25.1651 76.8949 25.1651 76.8949C25.3341 76.7892 25.5032 76.6836 25.6722 76.578C27.1724 82.0716 25.7356 86.9102 22.2281 90.7346ZM46.5268 74.2115C45.3647 77.0428 42.9348 84.2902 41.4558 83.8887C40.188 83.5506 39.4062 78.057 41.2022 72.6268C42.1108 69.9011 44.0336 66.6472 45.1534 65.3794C46.9706 63.351 48.9778 62.6749 49.4638 63.4989C50.0766 64.5765 47.2452 72.4366 46.5268 74.2115ZM66.5786 83.8042C66.0926 84.0577 65.6277 84.2268 65.4165 84.1C65.2685 84.0155 65.6277 83.6774 65.6277 83.6774C65.6277 83.6774 68.1421 80.9729 69.1352 79.7474C69.7057 79.029 70.3818 78.1838 71.1002 77.233V77.5076C71.1002 80.7404 67.9731 82.9168 66.5786 83.8042ZM82.0452 80.2756C81.686 80.022 81.7494 79.1769 82.9538 76.5357C83.4186 75.5004 84.5174 73.7678 86.3979 72.0985C86.6092 72.7747 86.7571 73.4297 86.7359 74.0424C86.7148 78.1204 83.799 79.6417 82.0452 80.2756Z" fill="#CD6799"/>
</svg>
