<svg width="116" height="116" viewBox="0 0 116 116" fill="none" xmlns="http://www.w3.org/2000/svg">
<g clip-path="url(#clip0_17_33)">
<path d="M66.6517 113.685C66.822 113.295 67.2517 113.023 67.5638 112.695C72.327 107.632 77.1308 102.615 81.8291 97.4906C83.2994 96.1142 84.4355 94.4116 85.1486 92.5161C85.8617 90.6205 86.1325 88.5834 85.9397 86.5642C85.7922 85.6995 85.5987 84.8435 85.36 84C84.079 85.2328 82.8872 86.3546 81.6873 87.4846C79.8225 89.2434 77.9659 91.0103 76.0849 92.7485C74.9758 93.8949 73.5497 94.6732 71.995 94.9806C70.4403 95.288 68.8302 95.1101 67.3773 94.4703C65.9066 93.9226 64.627 92.9492 63.6974 91.6707C62.7677 90.3923 62.2289 88.8653 62.1479 87.2792C62.1044 87.0751 62.0461 86.8746 61.9736 86.6792C60.5426 87.912 59.1724 89.0461 57.8144 90.2132L29.5878 114.458C29.3932 114.626 29.1824 114.836 29 115H66.6314L66.5747 114.963C66.372 114.819 66.4774 114.063 66.6517 113.685Z" fill="#FFCEBF"/>
<path d="M26.1168 113.65C26.4609 113.204 26.8761 112.816 27.346 112.504L67.4962 78.5528C70.2351 76.2354 72.9615 73.9056 75.6754 71.5632C76.0107 71.3302 76.2735 71.0078 76.4337 70.633C77.0829 67.8134 77.1749 64.8949 76.7046 62.0403C76.2879 62.331 76.0629 62.4556 75.8712 62.6591C72.5837 65.5912 69.3129 68.5481 66.0087 71.4636C64.9141 72.5616 63.4984 73.2854 61.9651 73.5309C60.4318 73.7765 58.8599 73.531 57.4753 72.8299C56.0628 72.1653 54.8806 71.0968 54.0793 69.7604C53.2779 68.424 52.8936 66.8801 52.9753 65.3254C52.9753 64.9724 52.9753 64.6235 52.9753 63.9798C52.3711 64.42 51.9294 64.7149 51.5169 65.0471C35.4474 77.8717 19.3807 90.6867 3.31668 103.492C2.59168 104.069 1.72501 105.357 0.775005 104.107C-0.175001 102.856 1.27084 102.342 2.00001 101.76C19.1251 88.0633 36.2585 74.379 53.4003 60.7072C56.192 58.477 56.3753 57.5426 54.5586 54L53.4753 55.0133C50.5044 57.7668 47.5003 60.4829 44.5752 63.2821C43.3754 64.4356 41.8727 65.2274 40.2406 65.566C38.6085 65.9045 36.9137 65.7761 35.3517 65.1955C33.7897 64.6149 32.4244 63.6058 31.4133 62.2847C30.4022 60.9636 29.7867 59.3844 29.6377 57.7294C29.0835 58.1447 28.6043 58.4479 28.1502 58.8009L2.73335 78.4365C2.29498 78.8651 1.79505 79.2262 1.25001 79.508C0.838645 79.632 0.396909 79.6099 0 79.4457V115H26.0668C25.9699 114.786 25.924 114.553 25.9326 114.319C25.9413 114.085 26.0044 113.856 26.1168 113.65Z" fill="#FFCEBF"/>
<path d="M96.3389 1.41066C95.6495 3.66851 94.9804 5.93043 94.3761 8.21261C93.818 9.82537 93.8829 11.5884 94.5582 13.1558C95.2334 14.7232 96.4702 15.9818 98.0259 16.6846C102.785 19.1849 108.147 20.308 113.509 19.9275V1.79575C113.45 1.39821 113.472 0.992712 113.574 0.603987C113.688 0.384102 113.831 0.180871 114 0H96.3227C96.5944 0.316181 96.5011 0.871526 96.3389 1.41066Z" fill="#FF6196"/>
<path d="M60.9834 40.5997C60.8945 42.7041 60.1452 44.7299 58.8383 46.3994C54.1663 52.3246 48.801 57.6891 42.853 62.3824C41.8938 63.2547 40.6781 63.8061 39.3801 63.9576C38.0822 64.109 36.7688 63.8527 35.6283 63.2254C34.4932 62.7489 33.536 61.9388 32.8884 60.9064C32.2409 59.8739 31.9346 58.6698 32.0117 57.4594C32.1491 55.9728 32.7773 54.5711 33.8007 53.4678C40.4519 47.237 47.6583 41.6044 55.3332 36.6377C55.8359 36.2504 56.4497 36.0282 57.088 36.0025C57.7262 35.9768 58.3565 36.1489 58.8898 36.4944C59.5907 36.9219 60.1573 37.5318 60.5269 38.2565C60.8964 38.9811 61.0544 39.7922 60.9834 40.5997Z" fill="#FF87AF"/>
<path d="M54.0335 66.4323C53.9346 65.5336 54.0554 64.6252 54.3864 63.7787C54.7173 62.9321 55.2493 62.1703 55.9406 61.5534C62.4026 55.8609 69.3357 50.6764 76.6721 46.0505C76.8934 45.9163 77.0978 45.7821 77.3404 45.6439C77.9812 45.202 78.7577 44.9762 79.5476 45.002C80.3375 45.0277 81.096 45.3036 81.7038 45.7862C82.2919 46.262 82.708 46.9027 82.8929 47.6173C83.0778 48.3319 83.0222 49.0839 82.734 49.7666C81.8058 52.7192 80.0928 55.3918 77.7618 57.5242C73.0579 61.9965 68.1751 66.3225 63.2881 70.616C62.5481 71.3429 61.5759 71.8141 60.5247 71.9554C59.4735 72.0967 58.403 71.9001 57.4816 71.3966C56.5134 70.9161 55.689 70.2084 55.0858 69.3401C54.4827 68.4717 54.1205 67.4711 54.0335 66.4323Z" fill="#FF87AF"/>
<path d="M84.7165 69.4399C83.5625 70.7087 82.3756 71.9183 81.267 73.2167C80.9336 73.7185 80.6571 74.2578 80.4427 74.8239C81.0527 75.01 81.7657 75.5006 82.2602 75.3272C84.7783 74.4601 87.2346 73.4197 90 72.3243C89.3983 73.7454 88.945 75.0565 88.3062 76.2576C85.6745 80.7963 82.3788 84.8931 78.5346 88.4044C77.0729 89.8509 75.5549 91.2339 73.9806 92.5535C73.1468 93.2635 72.1443 93.7335 71.0755 93.9154C70.0067 94.0973 68.91 93.9846 67.8976 93.5888C66.8851 93.193 65.9933 92.5283 65.3134 91.6627C64.6334 90.7972 64.1897 89.7618 64.0276 88.6624C63.9616 88.0512 64.0142 87.4326 64.1826 86.8424C64.351 86.2522 64.6317 85.7021 65.0085 85.2239C70.6168 78.974 77.0263 73.5346 84.0612 69.055C84.1468 69.0209 84.2374 69.0023 84.3291 69L84.7165 69.4399Z" fill="#FF87AF"/>
<path d="M95 52.5286L101.465 21L106 22.1657L103.661 29.9691C101.477 37.2289 99.2662 44.4888 97.135 51.757C96.7193 53.1011 96.1752 53.35 95 52.5286Z" fill="#FF6196"/>
<path d="M86 71C86.7319 68.168 87.4598 65.5492 88.0744 62.9016C88.6734 60.3341 89.8128 57.9281 91.4145 55.8484C92.3971 54.541 93.501 55.0615 94.6292 55.3443C95.6725 55.6025 95.9353 56.3771 95.9798 57.3935C96.1443 60.2042 95.2998 62.9803 93.6021 65.209C91.5811 67.7484 88.9686 69.7385 86 71Z" fill="#FF6196"/>
<path d="M115.946 3.70653C116.008 2.78388 115.984 1.85749 115.875 0.939177C115.79 0.682668 115.621 0.46235 115.395 0.313623C115.211 0.164087 114.996 0.0578904 114.765 0.00291704C114.633 -0.0219394 114.446 0.114771 114.268 0.309479C114.095 0.494327 113.949 0.702029 113.833 0.926748C113.729 1.32402 113.706 1.73844 113.767 2.14471V20.6711C108.289 21.0599 102.812 19.9121 97.9513 17.3569C96.3622 16.6385 95.0988 15.3522 94.4091 13.7504C93.7194 12.1485 93.653 10.3468 94.2231 8.69853C94.8404 6.36617 95.5238 4.05452 96.228 1.74701C96.3937 1.19603 96.489 0.628471 96.228 0.305337C96.0829 0.148032 95.8825 0.053018 95.6688 0.040202C95.3952 0.0431537 95.1302 0.136353 94.9149 0.305337C94.6051 0.490644 94.3583 0.764917 94.2066 1.09246C93.3781 3.5781 92.649 6.0886 92.0153 8.62396C91.776 9.62306 91.7115 10.6561 91.8247 11.6772C91.985 13.5247 92.672 15.2875 93.8043 16.7561C94.9365 18.2248 96.4664 19.3377 98.2122 19.9626C98.9951 20.2899 99.4549 20.6131 99.2354 21.6446C98.933 22.9537 98.6389 24.2628 98.3407 25.5761C96.3109 34.4747 94.2922 43.3774 92.2845 52.2843C92.2279 52.6814 92.0533 53.0524 91.7833 53.349C90.46 54.4009 89.3482 55.6942 88.5067 57.1603C87.4343 59.0951 86.6923 61.1953 86.3112 63.3744C86.2381 64.0695 85.9869 64.734 85.582 65.3037C85.1771 65.8733 84.6322 66.3289 83.9998 66.6265C82.2724 67.5006 80.6859 68.6316 78.768 69.8081C78.8958 67.5015 78.8709 65.1889 78.6934 62.8856C78.5474 62.177 78.5784 61.4434 78.7836 60.7497C78.9888 60.056 79.3619 59.4236 79.8698 58.9085C82.3963 56.4055 84.1971 53.2644 85.0809 49.8194C85.3449 49.0208 85.4173 48.1713 85.2922 47.3396C85.1672 46.5078 84.8482 45.7172 84.361 45.0316C83.8739 44.346 83.2323 43.7846 82.488 43.3929C81.7438 43.0012 80.9179 42.7901 80.077 42.7767C78.7155 42.7615 77.3788 43.1414 76.2287 43.8704C72.2645 46.5466 68.4079 49.3885 64.5804 52.2636C62.3145 53.9704 60.1812 55.8595 57.9857 57.6492C57.8911 57.5475 57.809 57.4348 57.7413 57.3136C57.6993 57.0086 57.6172 56.7105 57.4969 56.427C55.6619 53.5934 56.9336 51.5345 58.926 49.4175C61.0018 47.2414 62.1488 44.3425 62.1239 41.335C62.1883 39.8027 61.7085 38.2971 60.7694 37.0846C60.2691 36.4691 59.6526 35.9581 58.955 35.5808C57.9642 35.0384 56.8311 34.812 55.7079 34.932C54.5847 35.0519 53.5251 35.5125 52.6711 36.2519L51.5153 37.0804C48.8767 38.9695 46.2048 40.8089 43.6656 42.8306C39.9581 45.7802 36.3377 48.8541 32.7877 52.0026C31.1308 53.465 29.9212 55.4618 28.2021 56.8206C19.238 63.9006 10.1787 70.8521 1.15246 77.8492C0.842094 78.0343 0.556712 78.2585 0.303277 78.5161C0.277187 78.5538 0.254981 78.5941 0.236999 78.6363C0.0464503 79.0796 -0.115102 79.8128 0.108586 80.0821C0.163419 80.1405 0.22969 80.1871 0.303277 80.2188C0.697869 80.3826 1.13703 80.4046 1.54599 80.2809C2.08785 79.9998 2.58486 79.6396 3.02067 79.2121L28.2891 59.6252C28.7406 59.2731 29.217 58.9541 29.7679 58.5564C29.9161 60.2072 30.528 61.7825 31.5332 63.1003C32.5384 64.4181 33.8958 65.4247 35.4486 66.0039C37.0015 66.5831 38.6864 66.7112 40.309 66.3735C41.9315 66.0358 43.4255 65.2459 44.6183 64.0953C47.518 61.3031 50.5129 58.5937 53.4664 55.8471L54.5434 54.8362C56.3495 58.37 56.1672 59.3021 53.3918 61.5268C36.3363 75.1757 19.2933 88.8274 2.26262 102.482C1.5377 103.062 0.104444 103.588 1.04476 104.823C1.98508 106.057 2.85083 104.785 3.5716 104.209C19.5501 91.447 35.5175 78.668 51.4739 65.8725C51.8882 65.5411 52.3231 65.2469 52.9238 64.8078C52.9238 65.4499 52.9238 65.7979 52.9238 66.1501C52.8425 67.701 53.2246 69.241 54.0213 70.574C54.818 71.9071 55.9932 72.973 57.3975 73.636C58.774 74.3353 60.3367 74.5802 61.8611 74.3353C63.3854 74.0904 64.7929 73.3683 65.8811 72.273C69.166 69.3731 72.4177 66.4152 75.6861 63.4904C75.8932 63.304 76.1334 63.1631 76.5145 62.8731C76.9821 65.7206 76.8906 68.632 76.2453 71.4445C76.086 71.8184 75.8247 72.14 75.4914 72.3725C72.7905 74.7062 70.08 77.0303 67.3599 79.3447L27.4606 113.216C26.9935 113.527 26.5807 113.914 26.2386 114.359C26.1295 114.562 26.0682 114.788 26.0596 115.018C26.051 115.249 26.0952 115.478 26.1889 115.689C26.3761 115.829 26.5925 115.925 26.8219 115.971C27.0514 116.016 27.2881 116.009 27.5145 115.95C27.6931 115.898 27.8575 115.806 27.995 115.681C28.2021 115.515 28.4092 115.304 28.5956 115.134L57.4389 90.6917C58.8266 89.5151 60.2267 88.3551 61.689 87.1289C61.7631 87.3259 61.8226 87.528 61.8671 87.7337C61.9499 89.3328 62.5004 90.8723 63.4504 92.1611C64.4004 93.45 65.7079 94.4314 67.2108 94.9835C68.6953 95.6285 70.3406 95.8079 71.9293 95.498C73.518 95.188 74.9752 94.4034 76.1086 93.2477C78.0306 91.4953 79.9278 89.714 81.8333 87.9409C83.076 86.8016 84.2773 85.6582 85.5863 84.4278C85.8302 85.2782 86.0279 86.1412 86.1787 87.0129C86.3691 89.0419 86.0892 91.0875 85.3607 92.9908C84.6322 94.8941 83.4748 96.6038 81.9783 97.987C77.1773 103.157 72.2686 108.215 67.4013 113.315C67.0824 113.647 66.6433 113.92 66.4693 114.314C66.2953 114.707 66.1835 115.478 66.3906 115.643L66.4486 115.681C66.8829 115.892 67.3714 115.966 67.8487 115.892C67.9824 115.865 68.1017 115.789 68.1842 115.681C68.3002 115.561 68.4121 115.411 68.5239 115.3C72.4674 111.223 76.4317 107.167 80.3462 103.062C81.9263 101.461 83.4118 99.7691 84.7951 97.9953C86.5989 95.9982 87.795 93.5275 88.2426 90.8737C88.6903 88.22 88.3709 85.4935 87.322 83.0152C87.2092 82.4626 87.3194 81.8878 87.6285 81.4161C87.8977 80.9521 88.196 80.5005 88.5025 80.0531C89.4834 78.7795 90.3003 77.3877 90.9341 75.9104C92.1589 72.2846 94.039 68.9145 96.4807 65.9678C97.6033 64.5444 98.3756 62.8772 98.7354 61.1005C99.0951 59.3237 99.0323 57.4873 98.5519 55.7394C98.3822 55.0748 98.3822 54.3781 98.5519 53.7136C100.648 47.2219 102.806 40.7509 104.944 34.2758C105.902 31.3759 106.855 28.4843 107.802 25.6009L108.684 22.9206C110.565 22.9206 112.338 22.8833 114.102 22.9206C115.569 22.962 116.016 22.2743 116 20.8492C115.913 15.1322 115.946 9.41937 115.946 3.70653ZM42.4726 62.9726C41.5464 63.8299 40.3726 64.3719 39.1193 64.5208C37.8661 64.6696 36.598 64.4177 35.4968 63.8011C34.4008 63.3328 33.4766 62.5366 32.8514 61.5218C32.2261 60.507 31.9304 59.3235 32.0048 58.1339C32.1375 56.6727 32.7441 55.2951 33.7322 54.2107C40.1542 48.0865 47.1122 42.5504 54.5227 37.6687C54.9272 37.3828 55.3873 37.1851 55.8731 37.0887C56.199 37.0286 56.5331 37.0286 56.859 37.0887C57.2493 37.1647 57.6217 37.3137 57.9567 37.5279C58.6341 37.9484 59.1816 38.5486 59.5385 39.2616C59.8954 39.9747 60.0476 40.7727 59.9782 41.567C59.8923 43.6354 59.1689 45.6265 57.907 47.2674C53.3958 53.0897 48.2154 58.3609 42.4726 62.9726ZM64.0129 70.9639C63.2927 71.7045 62.3468 72.1846 61.3239 72.3286C60.301 72.4726 59.2593 72.2723 58.3627 71.7593C57.4189 71.2686 56.6156 70.5456 56.0285 69.6584C55.4415 68.7713 55.0901 67.7492 55.0074 66.6886C54.9112 65.7729 55.0288 64.8473 55.3508 63.9847C55.6728 63.1221 56.1905 62.346 56.8631 61.7173C63.1512 55.9171 69.8976 50.6345 77.0365 45.9211C77.2519 45.7843 77.4507 45.6476 77.6868 45.5068C78.3104 45.0566 79.0659 44.8265 79.8346 44.8527C80.6032 44.879 81.3413 45.1601 81.9327 45.6518C82.505 46.1366 82.9099 46.7894 83.0898 47.5175C83.2698 48.2456 83.2157 49.0119 82.9352 49.7075C82.032 52.716 80.3652 55.4392 78.0969 57.6119C73.5279 62.1772 68.7766 66.5726 64.0211 70.9473L64.0129 70.9639ZM88.4984 76.1051C85.8569 80.5437 82.5501 84.5508 78.6934 87.9865C77.2243 89.4033 75.6985 90.7579 74.1161 92.0505C73.2781 92.7459 72.2705 93.2063 71.1962 93.3845C70.1219 93.5627 69.0196 93.4523 68.002 93.0646C66.9844 92.6769 66.088 92.0258 65.4046 91.178C64.7211 90.3301 64.2752 89.3159 64.1123 88.2392C64.0459 87.6404 64.0988 87.0345 64.268 86.4564C64.4373 85.8783 64.7194 85.3395 65.0982 84.8711C70.7352 78.7492 77.1774 73.4213 84.2483 69.0334C84.3343 69.0001 84.4254 68.9818 84.5176 68.9795L84.9318 69.3938C83.7719 70.6366 82.5789 71.8215 81.4647 73.0933C81.1296 73.5849 80.8516 74.113 80.6362 74.6675C81.2493 74.8498 81.9659 75.3304 82.463 75.1605C84.4637 74.4894 86.4314 73.7106 88.5398 72.882L90.2423 72.2192C89.6044 73.6277 89.1487 74.9119 88.5067 76.0885L88.4984 76.1051ZM94.1859 65.6032C92.6407 67.5705 90.704 69.1956 88.4984 70.3756C87.8163 70.7568 87.1162 71.1131 86.3982 71.4445C87.1356 68.6233 87.8729 66.0092 88.4984 63.3661L88.5232 63.2584C89.1369 60.6631 90.304 58.2311 91.9448 56.1288C92.9514 54.8072 94.0823 55.3334 95.238 55.6192C96.3067 55.8802 96.576 56.6632 96.6216 57.6906C96.7914 60.5293 95.9293 63.3337 94.1941 65.5866L94.1859 65.6032ZM103.879 30.3899C101.485 37.6397 99.0614 44.8895 96.7251 52.1476C96.286 53.5106 95.6895 53.7591 94.4013 52.9389L100.544 25.6258L101.489 21.4333L106.46 22.5974C106.12 23.6207 105.793 24.6274 105.461 25.6258L103.879 30.3899Z" fill="black"/>
</g>
<defs>
<clipPath id="clip0_17_33">
<rect width="116" height="116" fill="white"/>
</clipPath>
</defs>
</svg>
