<svg width="116" height="116" viewBox="0 0 116 116" fill="none" xmlns="http://www.w3.org/2000/svg">
<g clip-path="url(#clip0_17_43)">
<path d="M8 116C3.58172 116 0 112.418 0 108V8C0 3.58172 3.58172 0 8 0H108C112.418 0 116 3.58172 116 8V108C116 112.418 112.418 116 108 116H8Z" fill="#007ACC"/>
<path d="M25.433 58.203V62.93H40.513V105.85H51.214V62.93H66.294V58.29C66.294 55.68 66.294 53.563 66.178 53.505C66.178 53.418 56.985 53.389 45.82 53.389L25.52 53.476V58.232L25.433 58.203ZM93.206 53.36C96.164 54.056 98.426 55.39 100.456 57.507C101.529 58.667 103.124 60.697 103.24 61.219C103.24 61.393 98.223 64.786 95.178 66.671C95.062 66.758 94.598 66.265 94.134 65.511C92.626 63.365 91.089 62.437 88.682 62.263C85.202 62.031 82.882 63.858 82.882 66.903C82.882 67.831 83.056 68.353 83.404 69.107C84.187 70.702 85.637 71.659 90.132 73.631C98.426 77.198 102.022 79.547 104.197 82.911C106.662 86.681 107.213 92.597 105.56 97.034C103.704 101.877 99.18 105.154 92.713 106.227C90.683 106.575 86.043 106.517 83.868 106.14C79.228 105.27 74.791 102.95 72.065 99.963C70.992 98.803 68.933 95.7 69.049 95.497L70.151 94.801L74.501 92.278L77.778 90.364L78.532 91.379C79.489 92.887 81.635 94.917 82.882 95.613C86.652 97.556 91.698 97.295 94.192 95.033C95.265 94.047 95.729 93.003 95.729 91.553C95.729 90.219 95.526 89.61 94.859 88.595C93.931 87.319 92.075 86.275 86.855 83.955C80.852 81.403 78.3 79.779 75.922 77.285C74.559 75.777 73.312 73.428 72.732 71.485C72.297 69.803 72.152 65.685 72.558 64.032C73.805 58.232 78.184 54.172 84.448 53.012C86.478 52.606 91.263 52.78 93.264 53.302L93.206 53.36Z" fill="white"/>
</g>
<defs>
<clipPath id="clip0_17_43">
<rect width="116" height="116" fill="white"/>
</clipPath>
</defs>
</svg>
